<?xml version="1.0" encoding="UTF-8" standalone="no"?>
<svg
   width="1024"
   height="1024"
   viewBox="0 0 1024 1024"
   version="1.1"
   id="svg11"
   sodipodi:docname="logo_svg.svg"
   inkscape:version="1.4.3 (0d15f75, 2025-12-25)"
   xmlns:inkscape="http://www.inkscape.org/namespaces/inkscape"
   xmlns:sodipodi="http://sodipodi.sourceforge.net/DTD/sodipodi-0.dtd"
   xmlns="http://www.w3.org/2000/svg"
   xmlns:svg="http://www.w3.org/2000/svg">
  <defs
     id="defs11" />
  <sodipodi:namedview
     id="namedview11"
     pagecolor="#ffffff"
     bordercolor="#000000"
     borderopacity="0.25"
     inkscape:showpageshadow="2"
     inkscape:pageopacity="0.0"
     inkscape:pagecheckerboard="0"
     inkscape:deskcolor="#d1d1d1"
     showgrid="true"
     inkscape:zoom="0.5"
     inkscape:cx="237"
     inkscape:cy="561"
     inkscape:window-width="1920"
     inkscape:window-height="1009"
     inkscape:window-x="1912"
     inkscape:window-y="-8"
     inkscape:window-maximized="1"
     inkscape:current-layer="svg11"
     inkscape:export-bgcolor="#ffffff00">
    <inkscape:grid
       id="grid23"
       units="px"
       originx="0"
       originy="0"
       spacingx="1"
       spacingy="1"
       empcolor="#0099e5"
       empopacity="0.30196078"
       color="#0099e5"
       opacity="0.14901961"
       empspacing="5"
       enabled="true"
       visible="true" />
    <inkscape:page
       x="0"
       y="0"
       width="1024"
       height="1024"
       id="page2"
       margin="0"
       bleed="0" />
  </sodipodi:namedview>
  <rect
     style="fill:#000000;fill-opacity:1;fill-rule:evenodd;stroke:none;stroke-width:4.90876;stroke-linecap:round;stroke-linejoin:bevel;stroke-miterlimit:4.6;stroke-dasharray:none;stroke-opacity:1;paint-order:normal"
     id="rect1"
     width="544"
     height="550"
     x="220"
     y="330"
     ry="0" />
  <path
     fill="#fdc323"
     d="m 182.20778,196.76713 301.28935,0.33431 0.0687,77.75666 c 56.14344,0.79987 114.80095,0.20148 171.04514,-0.0504 l -0.0503,46.70985 -216.84981,0.0261 -0.18165,-77.50022 -303.86145,0.0902 c -0.62433,29.07765 0.0901,60.67855 0.15876,89.93327 l -0.0962,159.876 30.6087,0.055 -0.0228,-146.87356 -0.14043,-72.21864 242.69289,-9.2e-4 0.087,46.59082 -196.53865,0.18623 -0.0611,359.99419 -46.38016,0.058 0.32055,-142.12623 -77.12166,-0.17554 0.24119,-342.37878 z"
     id="path2"
     style="display:inline;stroke-width:1.52646" />
  <path
     fill="#FDC323"
     d="m 333.302,425.49896 91.214,0.0993 0.12517,54.26436 L 480,480 c 0.7846,14.0099 0.27018,33.33497 0.24423,47.58606 l -0.0198,84.02282 0.15263,112.80587 c 0.0274,20.83778 0.47932,43.56228 -0.17553,64.26727 l -59.16432,-0.0672 c -1.12194,-36.46118 -0.14655,-77.73531 -0.12059,-114.49261 l -0.13434,-0.68997 c -1.79114,-1.26949 -24.14131,-1.45755 -45.59014,-1.36398 -17.33975,0.0758 -34.09043,0.33535 -38.91352,0.35651 l 0.0274,117.0189 -58.3507,-0.0228 0.20607,-309.50787 55.13749,0.15723 z"
     id="path3"
     style="display:inline;fill:#fdbb00;fill-opacity:1;stroke:#000000;stroke-width:5;stroke-opacity:1;stroke-dasharray:none"
     sodipodi:nodetypes="cccccccccccscccccc" />
  <path
     d="m 333.97671,482.59796 c 28.20451,0.1129 59.11413,0.24578 87.31865,0 0.16792,45.0903 0.32952,91.24758 -0.65354,136.15317 l -86.66511,-0.29767 c -0.15419,-45.76956 -0.50068,-90.13477 0,-135.8555 z"
     id="path4"
     style="display:inline;opacity:1;fill:#000000;fill-opacity:1;fill-rule:evenodd;stroke:#000000;stroke-width:5;stroke-linecap:square;stroke-miterlimit:4.6;stroke-dasharray:none;stroke-opacity:1"
     sodipodi:nodetypes="ccccc" />
  <path
     fill="#fdc323"
     d="m 848.49355,569.52411 c 14.97159,-0.39383 31.38263,-0.0153 46.46259,0.029 l 0.0565,189.03148 -77.09105,-0.17401 0.0305,173.56075 -166.70844,0.18165 0.0228,77.41622 -122.43025,-0.1129 -0.20607,-77.3309 -113.36913,-0.10836 -48.47295,0.0474 0.0656,-44.69644 c 68.13536,-0.0137 140.55094,-1.22424 208.33826,0.17247 l -0.0474,74.8625 c 9.71443,0.23202 19.9967,0.11449 29.75998,0.16333 l -0.0427,-75.07771 166.98319,0.058 c 0.61671,-20.46076 0.21373,-42.86319 0.2183,-63.44148 l 0.005,-111.77701 76.37064,-0.19999 z"
     id="path5"
     style="display:inline;stroke-width:1.52646" />
  <path
     fill="#fdc323"
     d="m 732.49738,2.5151276 c 53.64004,-0.6991171 108.69204,-0.068658 162.4603,-0.00908 l 0.0703,182.3196324 -46.68699,-0.01 c -0.42437,-33.8387 0.0198,-68.71082 0.0533,-102.628917 -16.8277,18.966427 -37.01522,38.158657 -54.93901,56.138917 -34.93774,34.60805 -69.63891,69.45423 -104.10193,104.53396 l -0.84872,0.87619 c -3.74138,0.78765 -46.49769,0.24575 -52.98824,0.2259 l -121.52808,0.28546 0.0113,-47.22429 h 155.94044 c 13.76263,-12.38269 32.38094,-32.46946 46.14049,-46.22598 l 101.5604,-101.76495 -85.22872,0.0011 z"
     id="path6"
     style="display:inline;stroke:#000000;stroke-width:5.03733;stroke-linecap:round;stroke-dasharray:none;stroke-opacity:1;paint-order:normal" />
  <path
     fill="#fdc323"
     d="m 848.47525,274.91458 c 15.06316,-0.33431 31.44521,-0.087 46.59688,-0.12213 l 0.15726,264.46033 -77.34605,0.0931 c 0.36636,47.44412 0.48541,94.88973 0.3572,142.33536 -11.4363,9.1e-4 -35.66132,0.65944 -46.35116,-0.3175 l 0.1328,-115.19174 0.12364,-235.34142 c 15.26771,-0.0748 30.53697,0.0112 45.80315,0.2595 l 0.0901,162.78545 30.24082,0.0305 z"
     id="path7"
     style="display:inline;stroke-width:1.52646" />
  <path
     fill="#fdc323"
     d="m 647.95251,533.66283 58.08664,0.0274 -0.0153,56.90514 -0.0625,145.58826 -53.2065,-0.0153 -0.13126,53.07677 -89.76081,0.032 c -0.18929,-17.47801 0.0397,-35.40638 0.0671,-52.9195 l -53.99724,0.0793 0.0718,-202.65064 59.45587,0.01 -0.18317,200.23726 79.48768,-0.0962 c 0.93571,-66.15094 -0.16028,-133.89095 0.18776,-200.27392 z"
     id="path8"
     style="display:inline;stroke:#fdb421;stroke-width:1.52646;stroke-opacity:1" />
  <path
     fill="#FDC323"
     d="m 87.29209,788.74148 46.44579,0.007 c -1.40434,55.8473 -0.17401,117.07844 -0.18622,173.41878 l 224.64089,0.29768 c 46.36642,-0.0809 93.59529,-0.65485 139.91745,-0.12366 l -0.10735,46.88842 h -0.45489 c -7.87154,0 -82.89433,0.2884 -94.06042,0.29 l -316.16782,-0.041 z"
     id="path9"
     style="display:inline;opacity:1;fill:#ffffff;fill-opacity:1;fill-rule:evenodd;stroke:#000000;stroke-width:5;stroke-linecap:square;stroke-miterlimit:4.6;stroke-dasharray:none;stroke-opacity:1"
     sodipodi:nodetypes="cccccccccc" />
  <path
     fill="#fdc323"
     d="m 83.63621,566.55362 46.36031,-0.2076 c -0.67926,47.06859 -0.0413,95.69877 0.0367,142.87724 l 83.35271,-0.70827 v 178.59657 l 122.95381,0.0153 0.0198,44.69799 c -56.19076,0.79834 -120.15733,1.38602 -176.39999,1.08073 l 0.6167,-177.74327 -76.97666,0.0961 z"
     id="path10"
     style="display:inline;opacity:1;fill:#ffffff;fill-opacity:1;fill-rule:evenodd;stroke:#000000;stroke-width:5;stroke-linecap:square;stroke-miterlimit:4.6;stroke-dasharray:none;stroke-opacity:1"
     sodipodi:nodetypes="ccccccccccc" />
  <path
     fill="#fdc323"
     d="m 848.40198,788.68502 47.31433,0.0658 c 0,73.93722 0.0577,147.56327 0,220.70078 l -168.48372,0.016 -45.91764,-0.098 0.14961,-47.06082 167.03053,0.20758 z"
     id="path11"
     style="display:inline;opacity:1;fill:#ffffff;fill-opacity:1;fill-rule:evenodd;stroke:#000000;stroke-width:5;stroke-linecap:square;stroke-miterlimit:4.6;stroke-dasharray:none;stroke-opacity:1"
     sodipodi:nodetypes="cccccccc" />
  <path
     style="display:inline;opacity:1;fill:#ffffff;fill-opacity:1;fill-rule:evenodd;stroke:#000000;stroke-width:5;stroke-linecap:square;stroke-miterlimit:4.6;stroke-dasharray:none;stroke-opacity:1"
     d="m 184.70645,192.95522 c 0,0 -67.83035,-0.37829 -101.07024,-0.38587 -1.51102,80.69556 0.12655,164.90576 -0.30454,245.7819 0.56109,34.31758 0.30454,71.7231 0.30454,105.30537 h 56.47926 c 13.73819,0 13.34023,0.01 16.79113,0 0.82586,-0.003 3.05294,-0.0624 3.05294,0 v 1.52638 13.73821 129.74971 L 215,690 V 325 h 192.0703 c -0.0236,-1.49038 0.17678,-1.96222 0.17678,-3.51722 v -26.64018 -11.15742 -7.16019 -3.05291 c 0,-0.0386 0,0 0,0 l -247.28755,1.52646 v 29.00286 101.72085 49.39932 19.20962 10.44643 5.45268 c -7.82655,-0.0917 -12.21174,0 -20.68624,0 -0.79878,0 -1.54378,0.62874 -1.46721,-2.45136 0.0668,-2.69182 -0.12333,-7.07978 0.0546,-11.13174 V 248.38468 L 434.72343,249.0486 435,325 c 71.74392,0 150.82783,-0.4652 221.4851,0 0,0 0.12453,-12.73292 0.12453,-22.52507 0,-10.68527 0.0993,-19.27159 -0.008,-30.52933 -55.8226,-0.0941 -112.21692,-0.5385 -168.0512,-0.56521 -0.29507,-25.33702 -0.29507,-52.81342 -0.29507,-78.76334 -70.87896,0 -141.33603,-0.54456 -212.28525,-0.0476 -30.17742,-0.11798 -61.08691,0.32644 -91.26453,0.38591 z"
     id="path15"
     sodipodi:nodetypes="cccccssscccccscsssccccccccssccccccccccsc" />
  <path
     style="display:inline;opacity:1;fill:#ffffff;fill-opacity:1;fill-rule:evenodd;stroke:#000000;stroke-width:5;stroke-linecap:square;stroke-miterlimit:4.6;stroke-dasharray:none;stroke-opacity:1"
     d="m 843.81647,272.52032 c 0,71.16921 0,147.05272 0,217.70998 h -21.93361 c -0.0285,-51.20294 -0.29556,-109.90558 -0.15385,-161.80544 h -52.7094 c 0,7.63232 0,21.37053 -0.0153,31.18569 0.0609,107.81615 0.0153,217.62833 0.0153,324.48099 h 29.00286 22.897 v -8.73776 l 0.67669,-132.55592 c 25.7508,0.0228 49.69671,0.11448 75.64657,0.23864 1.61883,-71.10296 1.36644,-144.08218 1.83062,-215.38528 -0.30408,-19.07042 -0.30408,-38.91448 -0.30408,-57.23209 h -54.95281 z"
     id="path17"
     sodipodi:nodetypes="ccccccccsccccccc" />
  <path
     style="display:inline;opacity:1;fill:#ffffff;fill-opacity:1;fill-rule:evenodd;stroke:#000000;stroke-width:5;stroke-linecap:square;stroke-miterlimit:4.6;stroke-dasharray:none;stroke-opacity:1"
     d="m 845.34295,566.55362 c 0.10587,47.01214 -1.05961,97.64966 -1.52648,145.01431 -24.8627,0.75785 -50.3734,-0.15322 -74.1197,0 0.84932,54.79957 0.84932,122.11731 0.84932,175.54363 H 732.38443 602.63478 v 72.36405 c -9.1588,-0.01 -7.63232,0.12364 -22.897,0.007 v -33.41978 c 0.25727,-13.50407 0,-23.68617 0.25727,-38.90314 -70.78029,-1.61739 -146.03537,0.41782 -217.01548,-0.0473 v 29.00287 16.79112 h 13.94437 149.38752 c 0,25.94992 0.244,51.40238 0,76.32332 41.72843,0 87.82399,-0.4682 129.74966,0 v -27.47639 -45.79399 h 164.85836 c 0,-7.63233 0,-21.37054 0,-32.0558 V 882.53216 761.22605 c 14.58748,0 29.63601,0.0392 44.16844,0.10746 11.17309,0.0523 22.201,0.0949 33.58177,0.0949 l 0.099,-194.87484 h -30.52934 z"
     id="path18"
     sodipodi:nodetypes="ccccccccccccsccccccccccscccc" />
  <path
     style="display:inline;opacity:1;fill:#fdbb00;fill-opacity:1;fill-rule:evenodd;stroke:#000000;stroke-width:5;stroke-linecap:square;stroke-miterlimit:4.6;stroke-dasharray:none;stroke-opacity:1"
     d="m 504.79695,567.3616 0.14398,174.73566 c 15.51192,-0.21678 35.10873,0 53.42634,0 0.28574,16.91411 0,35.1279 0,51.89985 32.05577,0 64.11158,0 97.69385,0.28672 -0.0246,-14.69188 0,-35.4718 0,-52.18657 h 53.42632 c 0,-68.691 0,-145.16835 0,-213.7053 h -64.11159 c 0,6.10587 0.40209,56.69173 -2.09006,200.94825 -23.61827,0.17832 -47.23987,0.0984 -70.85925,0.11313 l -1.84755,-201.06138 h -65.63806 c 0,12.21173 0.238,26.47889 -0.14393,38.96964 z"
     id="path24"
     sodipodi:nodetypes="ccccccccccccccc" />
</svg>
